<?xml version="1.0" encoding="UTF-8" standalone="no"?>
<svg
   xmlns:dc="http://purl.org/dc/elements/1.1/"
   xmlns:cc="http://creativecommons.org/ns#"
   xmlns:rdf="http://www.w3.org/1999/02/22-rdf-syntax-ns#"
   xmlns:svg="http://www.w3.org/2000/svg"
   xmlns="http://www.w3.org/2000/svg"
   xmlns:sodipodi="http://sodipodi.sourceforge.net/DTD/sodipodi-0.dtd"
   xmlns:inkscape="http://www.inkscape.org/namespaces/inkscape"
   inkscape:version="1.0 (4035a4fb49, 2020-05-01)"
   height="83mm"
   width="94mm"
   sodipodi:docname="siren-2859792.svg"
   viewBox="0 0 355.27555 313.70061"
   y="0px"
   x="0px"
   id="Layer_1"
   version="1.1">
  <metadata
     id="metadata45">
    <rdf:RDF>
      <cc:Work
         rdf:about="">
        <dc:format>image/svg+xml</dc:format>
        <dc:type
           rdf:resource="http://purl.org/dc/dcmitype/StillImage" />
        <dc:title></dc:title>
      </cc:Work>
    </rdf:RDF>
  </metadata>
  <defs
     id="defs43" />
  <sodipodi:namedview
     inkscape:current-layer="Layer_1"
     inkscape:window-maximized="0"
     inkscape:window-y="0"
     inkscape:window-x="0"
     inkscape:cy="241.98095"
     inkscape:cx="241.7369"
     inkscape:zoom="1.344"
     inkscape:pagecheckerboard="true"
     height="147mm"
     units="mm"
     showgrid="false"
     id="namedview41"
     inkscape:window-height="875"
     inkscape:window-width="1383"
     inkscape:pageshadow="2"
     inkscape:pageopacity="0"
     guidetolerance="10"
     gridtolerance="10"
     objecttolerance="10"
     borderopacity="1"
     bordercolor="#666666"
     pagecolor="#ffffff" />
  <style
     id="style2"
     type="text/css"> .st0{fill:#F9E3E3;} .st1{fill:#F3C6C6;} .st2{fill:#EEAAAA;} .st3{fill:#73727E;} .st4{fill:#989FA2;} .st5{fill:#AA5555;} .st6{fill:#E27171;} .st7{fill:#E88D8D;} .st8{fill:none;} .st9{font-family:'MyriadPro-Regular';} .st10{font-size:163.856px;} </style>
  <g
     transform="translate(-76.636905,-77.380952)"
     id="g38">
    <g
       id="g32">
      <path
         id="path4"
         d="m 188.6,380.3 h 130.5 c 45.2,-23.6 76.1,-70.9 76.1,-125.4 0,-78.1 -63.3,-141.3 -141.3,-141.3 -78,0 -141.3,63.3 -141.3,141.3 -0.1,54.5 30.8,101.8 76,125.4 z"
         class="st0" />
      <circle
         id="circle6"
         r="124.1"
         cy="254.89999"
         cx="253.89999"
         class="st1" />
      <circle
         id="circle8"
         r="105.1"
         cy="254.89999"
         cx="253.89999"
         class="st2" />
      <path
         id="path10"
         d="M 356.5,383.2 H 151.3 c -1.4,0 -2.5,-1.1 -2.5,-2.5 v -12.1 c 0,-1.4 1.1,-2.5 2.5,-2.5 h 205.2 c 1.4,0 2.5,1.1 2.5,2.5 v 12.1 c 0,1.4 -1.2,2.5 -2.5,2.5 z"
         class="st3" />
      <path
         id="path12"
         d="M 344.4,332 H 164 c -1.8,0 -3.3,1.5 -3.3,3.3 v 30.9 h 186.9 v -30.9 c 0,-1.8 -1.4,-3.3 -3.2,-3.3 z"
         class="st4" />
      <path
         id="path14"
         d="m 263,174.6 c 17.2,15 28.1,37 28.1,61.6 V 332 h 44.8 V 255.8 C 335.8,213.7 303.9,179 263,174.6 Z"
         class="st5" />
      <path
         id="path16"
         d="m 263,174.6 c -2.9,-0.3 -5.8,-0.5 -8.8,-0.5 v 0 c -45.1,0 -81.7,36.6 -81.7,81.7 V 332 H 291 v -95.8 c 0,-24.6 -10.8,-46.6 -28,-61.6 z"
         class="st6" />
      <path
         id="path18"
         d="M 139.3,262.6 H 86.7 c -1,0 -1.8,-0.8 -1.8,-1.8 v -8.9 c 0,-1 0.8,-1.8 1.8,-1.8 h 52.6 c 1,0 1.8,0.8 1.8,1.8 v 8.9 c 0,0.9 -0.8,1.8 -1.8,1.8 z"
         class="st7" />
      <path
         id="path20"
         d="m 140.6,194.4 -22.7,-11.9 c -0.6,-0.3 -0.9,-1.1 -0.5,-1.7 l 2.8,-5.4 c 0.3,-0.6 1.1,-0.9 1.7,-0.5 l 22.7,11.9 c 0.6,0.3 0.9,1.1 0.5,1.7 l -2.8,5.4 c -0.4,0.6 -1.1,0.8 -1.7,0.5 z"
         class="st2" />
      <path
         id="path22"
         d="m 184.3,146.1 -12.8,-22.2 c -0.3,-0.6 -0.1,-1.4 0.5,-1.7 l 5.3,-3.1 c 0.6,-0.3 1.4,-0.1 1.7,0.5 l 12.8,22.2 c 0.3,0.6 0.1,1.4 -0.5,1.7 l -5.3,3.1 c -0.5,0.3 -1.3,0.1 -1.7,-0.5 z"
         class="st2" />
      <path
         id="path24"
         d="m 317.9,141.1 11.9,-22.7 c 0.3,-0.6 1.1,-0.9 1.7,-0.5 l 5.4,2.8 c 0.6,0.3 0.9,1.1 0.5,1.7 l -11.9,22.7 c -0.3,0.6 -1.1,0.9 -1.7,0.5 l -5.4,-2.8 c -0.6,-0.3 -0.8,-1.1 -0.5,-1.7 z"
         class="st2" />
      <path
         id="path26"
         d="M 366.2,184.8 388.4,172 c 0.6,-0.3 1.4,-0.1 1.7,0.5 l 3.1,5.3 c 0.3,0.6 0.1,1.4 -0.5,1.7 l -22.2,12.8 c -0.6,0.3 -1.4,0.1 -1.7,-0.5 l -3.1,-5.3 c -0.4,-0.5 -0.2,-1.3 0.5,-1.7 z"
         class="st2" />
      <path
         id="path28"
         d="M 247.9,139.8 V 87.2 c 0,-1 0.8,-1.8 1.8,-1.8 h 8.9 c 1,0 1.8,0.8 1.8,1.8 v 52.6 c 0,1 -0.8,1.8 -1.8,1.8 h -8.9 c -1,0.1 -1.8,-0.7 -1.8,-1.8 z"
         class="st7" />
      <path
         id="path30"
         d="m 421.5,262.6 h -52.6 c -1,0 -1.8,-0.8 -1.8,-1.8 v -8.9 c 0,-1 0.8,-1.8 1.8,-1.8 h 52.6 c 1,0 1.8,0.8 1.8,1.8 v 8.9 c 0,0.9 -0.8,1.8 -1.8,1.8 z"
         class="st7" />
    </g>
    <rect
       id="rect34"
       height="149.60001"
       width="81.900002"
       class="st8"
       y="201.89999"
       x="213.2" />
    <text
       id="text36"
       class="st1 st9 st10"
       transform="translate(235.3481,318.2581)">!</text>
  </g>
</svg>
