<?xml version='1.0' encoding='utf-8'?>
<svg xmlns="http://www.w3.org/2000/svg" version="1.1" id="Layer_1" x="0px" y="0px" viewBox="0 0 500 500" style="enable-background:new 0 0 500 500;"> <style type="text/css"> .st0{fill:#F9E3E3;} .st1{fill:#F3C6C6;} .st2{fill:#EEAAAA;} .st3{fill:#73727E;} .st4{fill:#989FA2;} .st5{fill:#AA5555;} .st6{fill:#E27171;} .st7{fill:#E88D8D;} .st8{fill:none;} .st9{font-family:'MyriadPro-Regular';} .st10{font-size:163.856px;} </style> <g> <g> <path class="st0" d="M188.6,380.3h130.5c45.2-23.6,76.1-70.9,76.1-125.4c0-78.1-63.3-141.3-141.3-141.3s-141.3,63.3-141.3,141.3 C112.5,309.4,143.4,356.7,188.6,380.3z"/> <circle class="st1" cx="253.9" cy="254.9" r="124.1"/> <circle class="st2" cx="253.9" cy="254.9" r="105.1"/> <path class="st3" d="M356.5,383.2H151.3c-1.4,0-2.5-1.1-2.5-2.5v-12.1c0-1.4,1.1-2.5,2.5-2.5h205.2c1.4,0,2.5,1.1,2.5,2.5v12.1 C359,382.1,357.8,383.2,356.5,383.2z"/> <path class="st4" d="M344.4,332H164c-1.8,0-3.3,1.5-3.3,3.3v30.9h186.9v-30.9C347.6,333.5,346.2,332,344.4,332z"/> <path class="st5" d="M263,174.6c17.2,15,28.1,37,28.1,61.6V332h44.8v-76.2C335.8,213.7,303.9,179,263,174.6z"/> <path class="st6" d="M263,174.6c-2.9-0.3-5.8-0.5-8.8-0.5h0c-45.1,0-81.7,36.6-81.7,81.7V332H291v-95.8 C291,211.6,280.2,189.6,263,174.6z"/> <path class="st7" d="M139.3,262.6H86.7c-1,0-1.8-0.8-1.8-1.8v-8.9c0-1,0.8-1.8,1.8-1.8h52.6c1,0,1.8,0.8,1.8,1.8v8.9 C141.1,261.7,140.3,262.6,139.3,262.6z"/> <path class="st2" d="M140.6,194.4l-22.7-11.9c-0.6-0.3-0.9-1.1-0.5-1.7l2.8-5.4c0.3-0.6,1.1-0.9,1.7-0.5l22.7,11.9 c0.6,0.3,0.9,1.1,0.5,1.7l-2.8,5.4C141.9,194.5,141.2,194.7,140.6,194.4z"/> <path class="st2" d="M184.3,146.1l-12.8-22.2c-0.3-0.6-0.1-1.4,0.5-1.7l5.3-3.1c0.6-0.3,1.4-0.1,1.7,0.5l12.8,22.2 c0.3,0.6,0.1,1.4-0.5,1.7l-5.3,3.1C185.5,146.9,184.7,146.7,184.3,146.1z"/> <path class="st2" d="M317.9,141.1l11.9-22.7c0.3-0.6,1.1-0.9,1.7-0.5l5.4,2.8c0.6,0.3,0.9,1.1,0.5,1.7l-11.9,22.7 c-0.3,0.6-1.1,0.9-1.7,0.5l-5.4-2.8C317.8,142.5,317.6,141.7,317.9,141.1z"/> <path class="st2" d="M366.2,184.8l22.2-12.8c0.6-0.3,1.4-0.1,1.7,0.5l3.1,5.3c0.3,0.6,0.1,1.4-0.5,1.7l-22.2,12.8 c-0.6,0.3-1.4,0.1-1.7-0.5l-3.1-5.3C365.3,186,365.5,185.2,366.2,184.8z"/> <path class="st7" d="M247.9,139.8V87.2c0-1,0.8-1.8,1.8-1.8h8.9c1,0,1.8,0.8,1.8,1.8v52.6c0,1-0.8,1.8-1.8,1.8h-8.9 C248.7,141.7,247.9,140.9,247.9,139.8z"/> <path class="st7" d="M421.5,262.6h-52.6c-1,0-1.8-0.8-1.8-1.8v-8.9c0-1,0.8-1.8,1.8-1.8h52.6c1,0,1.8,0.8,1.8,1.8v8.9 C423.3,261.7,422.5,262.6,421.5,262.6z"/> </g> <rect x="213.2" y="201.9" class="st8" width="81.9" height="149.6"/> <text transform="matrix(1 0 0 1 235.3481 318.2581)" class="st1 st9 st10">!</text> </g> </svg>